<?xml version="1.0" encoding="UTF-8"?>
<!DOCTYPE svg PUBLIC "-//W3C//DTD SVG 1.1//EN" "http://www.w3.org/Graphics/SVG/1.1/DTD/svg11.dtd">
<svg xmlns="http://www.w3.org/2000/svg" version="1.1" width="79px" height="47px" style="shape-rendering:geometricPrecision; text-rendering:geometricPrecision; image-rendering:optimizeQuality; fill-rule:evenodd; clip-rule:evenodd" xmlns:xlink="http://www.w3.org/1999/xlink">
<g><path style="opacity:0.984" fill="#f5f5f5" d="M 42.5,20.5 C 45.6424,26.7779 49.309,32.7779 53.5,38.5C 50.7185,39.952 48.2185,39.6187 46,37.5C 40.2481,28.328 34.2481,19.328 28,10.5C 22.1109,18.0565 16.6109,25.8898 11.5,34C 16.8643,34.8295 22.1977,34.6628 27.5,33.5C 29.8333,30.1667 32.1667,26.8333 34.5,23.5C 36.1123,24.5486 37.1123,26.0486 37.5,28C 35.2967,31.5693 32.9634,35.0693 30.5,38.5C 20.8333,39.8333 11.1667,39.8333 1.5,38.5C 10.0211,25.4442 19.0211,12.7775 28.5,0.5C 33.1889,7.23314 37.8556,13.8998 42.5,20.5 Z"/></g>
<g><path style="opacity:1" fill="#dec45f" d="M 42.5,20.5 C 41.3648,18.2549 40.8648,15.9216 41,13.5C 44.0052,9.00282 47.1719,4.66949 50.5,0.5C 58.8333,13.1667 67.1667,25.8333 75.5,38.5C 72.7185,39.952 70.2185,39.6187 68,37.5C 62.3636,28.3653 56.5303,19.3653 50.5,10.5C 47.8141,13.903 45.1474,17.2363 42.5,20.5 Z"/></g>
<g><path style="opacity:0.075" fill="#5f93a4" d="M 78.5,12.5 C 78.5,15.8333 78.5,19.1667 78.5,22.5C 78.0574,19.1856 77.0574,16.019 75.5,13C 76.448,12.5172 77.448,12.3505 78.5,12.5 Z"/></g>
</svg>
