<?xml version="1.0" encoding="UTF-8"?>
<!DOCTYPE svg PUBLIC "-//W3C//DTD SVG 1.1//EN" "http://www.w3.org/Graphics/SVG/1.1/DTD/svg11.dtd">
<svg xmlns="http://www.w3.org/2000/svg" version="1.1" width="215px" height="55px" style="shape-rendering:geometricPrecision; text-rendering:geometricPrecision; image-rendering:optimizeQuality; fill-rule:evenodd; clip-rule:evenodd" xmlns:xlink="http://www.w3.org/1999/xlink">
<g><path style="opacity:0.991" fill="#f5f5f5" d="M 34.5,6.5 C 43.6154,18.6875 52.282,31.3542 60.5,44.5C 57.7185,45.952 55.2185,45.6187 53,43.5C 47.1667,34.5 41.3333,25.5 35.5,16.5C 29.4781,24.0302 23.8115,31.8636 18.5,40C 23.8643,40.8295 29.1977,40.6628 34.5,39.5C 36.8333,36.1667 39.1667,32.8333 41.5,29.5C 42.9744,30.4363 43.9744,31.7697 44.5,33.5C 42.4164,37.3359 40.083,41.0026 37.5,44.5C 27.8333,45.8333 18.1667,45.8333 8.5,44.5C 17.1766,31.8045 25.8433,19.1378 34.5,6.5 Z"/></g>
<g><path style="opacity:0.999" fill="#f3efe2" d="M 160.5,16.5 C 165.159,16.0146 166.492,17.848 164.5,22C 163.207,22.49 161.873,22.6567 160.5,22.5C 159.167,20.5 159.167,18.5 160.5,16.5 Z"/></g>
<g><path style="opacity:1" fill="#b8c6d7" d="M 160.5,16.5 C 159.167,18.5 159.167,20.5 160.5,22.5C 156.5,20.5 156.5,18.5 160.5,16.5 Z"/></g>
<g><path style="opacity:0.941" fill="#a9c4cf" d="M 137.5,26.5 C 135.817,30.6358 135.15,34.9691 135.5,39.5C 134.359,36.3601 134.192,33.0267 135,29.5C 135.377,28.0577 136.21,27.0577 137.5,26.5 Z"/></g>
<g><path style="opacity:1" fill="#f8fbf8" d="M 111.5,20.5 C 110.883,20.6107 110.383,20.944 110,21.5C 109.333,27.5 109.333,33.5 110,39.5C 110.383,40.056 110.883,40.3893 111.5,40.5C 111.414,41.4959 111.748,42.3292 112.5,43C 108.357,43.8431 105.69,43.6764 104.5,42.5C 105.653,36.3471 105.82,30.0137 105,23.5C 103.893,24.7119 103.393,24.3786 103.5,22.5C 103.33,21.1779 103.663,20.0113 104.5,19C 107.5,18.3333 110.5,18.3333 113.5,19C 112.956,19.7172 112.289,20.2172 111.5,20.5 Z"/></g>
<g><path style="opacity:0.994" fill="#f2f7f4" d="M 202.5,25.5 C 202.608,27.7834 203.441,29.7834 205,31.5C 205.498,34.4816 205.665,37.4816 205.5,40.5C 204.965,42.4456 203.632,43.4456 201.5,43.5C 200.508,43.6716 199.842,43.3382 199.5,42.5C 200.997,40.7103 201.664,38.5437 201.5,36C 201.492,34.2933 201.158,32.7933 200.5,31.5C 200.74,27.4727 199.074,26.1393 195.5,27.5C 194.607,30.0841 194.274,32.7508 194.5,35.5C 194.083,38.1589 193.083,40.4922 191.5,42.5C 189.629,38.1338 188.962,33.4671 189.5,28.5C 190.122,26.665 191.456,25.4983 193.5,25C 196.555,24.3658 199.555,24.5325 202.5,25.5 Z M 200.5,31.5 C 200.54,34.8806 200.207,38.2139 199.5,41.5C 198.142,42.6256 196.808,42.6256 195.5,41.5C 194.652,39.5914 194.318,37.5914 194.5,35.5C 194.274,32.7508 194.607,30.0841 195.5,27.5C 199.074,26.1393 200.74,27.4727 200.5,31.5 Z"/></g>
<g><path style="opacity:0.635" fill="#e0d8ab" d="M 111.5,20.5 C 111.5,27.1667 111.5,33.8333 111.5,40.5C 110.883,40.3893 110.383,40.056 110,39.5C 109.333,33.5 109.333,27.5 110,21.5C 110.383,20.944 110.883,20.6107 111.5,20.5 Z"/></g>
<g><path style="opacity:1" fill="#e0c55f" d="M 56.5,6.5 C 58.0744,6.93709 59.2411,7.93709 60,9.5C 67.5,21.1667 75,32.8333 82.5,44.5C 80.3052,45.7691 78.1385,45.7691 76,44.5C 70.0297,35.0311 63.8631,25.6978 57.5,16.5C 54.9362,19.2802 52.6029,22.2802 50.5,25.5C 48.2754,24.0538 47.4421,22.0538 48,19.5C 51.0561,15.2841 53.8894,10.9507 56.5,6.5 Z"/></g>
<g><path style="opacity:1" fill="#e6f1f1" d="M 151.5,17.5 C 153.154,25.2814 154.154,33.2814 154.5,41.5C 154.611,42.1174 154.944,42.6174 155.5,43C 151.324,43.4269 147.158,43.9269 143,44.5C 139.149,44.6695 136.649,43.0028 135.5,39.5C 135.15,34.9691 135.817,30.6358 137.5,26.5C 140.582,24.819 143.915,24.1524 147.5,24.5C 147.859,22.2341 147.192,20.4007 145.5,19C 147.345,17.872 149.345,17.372 151.5,17.5 Z M 143.5,26.5 C 144.833,26.5 146.167,26.5 147.5,26.5C 147.666,31.5111 147.499,36.5111 147,41.5C 144.546,43.013 142.879,42.3463 142,39.5C 141.055,34.9393 141.555,30.606 143.5,26.5 Z"/></g>
<g><path style="opacity:0.999" fill="#edf3f2" d="M 177.5,26.5 C 173.579,28.922 172.579,32.2553 174.5,36.5C 175.058,38.5934 176.391,40.0934 178.5,41C 181.304,41.1293 183.97,40.796 186.5,40C 180.844,45.813 175.011,45.9797 169,40.5C 165.699,29.26 169.865,24.0933 181.5,25C 188.487,29.3176 188.154,31.4843 180.5,31.5C 180.216,29.2406 179.216,27.5739 177.5,26.5 Z"/></g>
<g><path style="opacity:1" fill="#bed7e1" d="M 189.5,28.5 C 188.962,33.4671 189.629,38.1338 191.5,42.5C 189.589,42.4257 188.422,41.4257 188,39.5C 187.333,36.1667 187.333,32.8333 188,29.5C 188.383,28.944 188.883,28.6107 189.5,28.5 Z"/></g>
<g><path style="opacity:1" fill="#91b3be" d="M 103.5,22.5 C 103.393,24.3786 103.893,24.7119 105,23.5C 105.82,30.0137 105.653,36.3471 104.5,42.5C 104.666,37.1563 104.499,31.8229 104,26.5C 103.626,28.4913 102.793,30.158 101.5,31.5C 100.833,31.8333 100.167,32.1667 99.5,32.5C 100.267,28.8512 101.6,25.5178 103.5,22.5 Z"/></g>
<g><path style="opacity:0.872" fill="#ecf3f2" d="M 121.5,33.5 C 121.5,33.1667 121.5,32.8333 121.5,32.5C 123.167,32.5 124.833,32.5 126.5,32.5C 126.739,30.5328 126.406,28.6995 125.5,27C 123.648,26.2274 122.314,26.7274 121.5,28.5C 119.581,30.4211 118.581,32.9211 118.5,36C 119.688,38.8768 121.021,41.7101 122.5,44.5C 120.847,44.3404 119.514,43.6737 118.5,42.5C 116.686,38.7207 115.686,34.7207 115.5,30.5C 116.921,26.3347 119.921,24.3347 124.5,24.5C 130.178,24.8442 133.178,27.8442 133.5,33.5C 129.5,33.5 125.5,33.5 121.5,33.5 Z M 121.5,32.5 C 121.5,31.1667 121.5,29.8333 121.5,28.5C 122.314,26.7274 123.648,26.2274 125.5,27C 126.406,28.6995 126.739,30.5328 126.5,32.5C 124.833,32.5 123.167,32.5 121.5,32.5 Z"/></g>
<g><path style="opacity:1" fill="#dac7af" d="M 177.5,26.5 C 175.35,29.472 174.35,32.8053 174.5,36.5C 172.579,32.2553 173.579,28.922 177.5,26.5 Z"/></g>
<g><path style="opacity:1" fill="#e4d8bc" d="M 202.5,25.5 C 207.307,28.8973 208.807,33.564 207,39.5C 206.617,40.056 206.117,40.3893 205.5,40.5C 205.665,37.4816 205.498,34.4816 205,31.5C 203.441,29.7834 202.608,27.7834 202.5,25.5 Z"/></g>
<g><path style="opacity:0.224" fill="#e5dfc9" d="M 151.5,17.5 C 153.176,16.2897 154.51,16.7897 155.5,19C 154.519,26.4129 154.186,33.9129 154.5,41.5C 154.154,33.2814 153.154,25.2814 151.5,17.5 Z"/></g>
<g><path style="opacity:1" fill="#eaefec" d="M 99.5,32.5 C 100.167,32.1667 100.833,31.8333 101.5,31.5C 100.84,35.3127 99.6738,38.9793 98,42.5C 95.499,44.0558 93.999,43.3892 93.5,40.5C 93.1902,36.732 92.3569,33.0653 91,29.5C 90.185,27.4493 89.3517,26.116 88.5,25.5C 86.3227,24.4958 85.9893,25.1625 87.5,27.5C 86.9193,32.9752 87.5859,38.1418 89.5,43C 87.5,43.6667 85.5,43.6667 83.5,43C 84.9436,41.874 85.6102,40.374 85.5,38.5C 85.2675,31.7297 84.2675,25.2297 82.5,19C 85.5,18.3333 88.5,18.3333 91.5,19C 94.0525,23.987 96.2192,29.1537 98,34.5C 98.7172,33.9558 99.2172,33.2891 99.5,32.5 Z"/></g>
<g><path style="opacity:1" fill="#b6d0dd" d="M 93.5,40.5 C 91.2628,36.4656 89.5961,32.1323 88.5,27.5C 88.5,26.8333 88.5,26.1667 88.5,25.5C 89.3517,26.116 90.185,27.4493 91,29.5C 92.3569,33.0653 93.1902,36.732 93.5,40.5 Z"/></g>
<g><path style="opacity:0.933" fill="#676b7a" d="M 88.5,25.5 C 88.5,26.1667 88.5,26.8333 88.5,27.5C 88.1667,27.5 87.8333,27.5 87.5,27.5C 85.9893,25.1625 86.3227,24.4958 88.5,25.5 Z"/></g>
<g><path style="opacity:1" fill="#d8e7eb" d="M 163.5,24.5 C 163.362,29.7747 162.695,34.9413 161.5,40C 162.337,41.0113 162.67,42.1779 162.5,43.5C 160.473,43.6621 158.473,43.4955 156.5,43C 157.76,40.7875 158.426,38.2875 158.5,35.5C 158.333,33.1667 158.167,30.8333 158,28.5C 157.5,28 157,27.5 156.5,27C 158.569,25.4766 160.903,24.6432 163.5,24.5 Z"/></g>
<g><path style="opacity:1" fill="#bbd5df" d="M 115.5,30.5 C 115.686,34.7207 116.686,38.7207 118.5,42.5C 116.926,42.0629 115.759,41.0629 115,39.5C 114.195,36.3035 114.362,33.3035 115.5,30.5 Z"/></g>
<g><path style="opacity:0.999" fill="#f6f4e0" d="M 163.5,24.5 C 165.178,30.3306 166.178,36.4973 166.5,43C 165.207,43.49 163.873,43.6567 162.5,43.5C 162.67,42.1779 162.337,41.0113 161.5,40C 162.695,34.9413 163.362,29.7747 163.5,24.5 Z"/></g>
<g><path style="opacity:1" fill="#75a5c3" d="M 200.5,31.5 C 201.158,32.7933 201.492,34.2933 201.5,36C 201.664,38.5437 200.997,40.7103 199.5,42.5C 199.5,42.1667 199.5,41.8333 199.5,41.5C 200.207,38.2139 200.54,34.8806 200.5,31.5 Z"/></g>
<g><path style="opacity:0.82" fill="#f7f5e4" d="M 121.5,28.5 C 121.5,29.8333 121.5,31.1667 121.5,32.5C 121.5,32.8333 121.5,33.1667 121.5,33.5C 121.929,41.7736 125.429,43.4403 132,38.5C 132.388,40.0758 131.888,41.4091 130.5,42.5C 128.057,44.0553 125.39,44.722 122.5,44.5C 121.021,41.7101 119.688,38.8768 118.5,36C 118.581,32.9211 119.581,30.4211 121.5,28.5 Z"/></g>
<g><path style="opacity:0.98" fill="#d6d5c8" d="M 194.5,35.5 C 194.318,37.5914 194.652,39.5914 195.5,41.5C 196.808,42.6256 198.142,42.6256 199.5,41.5C 199.5,41.8333 199.5,42.1667 199.5,42.5C 199.842,43.3382 200.508,43.6716 201.5,43.5C 200.378,44.1558 199.045,44.4892 197.5,44.5C 195.117,44.639 193.117,43.9723 191.5,42.5C 193.083,40.4922 194.083,38.1589 194.5,35.5 Z"/></g>
</svg>
